<?xml version="1.0" encoding="UTF-8" standalone="no"?>
<!DOCTYPE svg PUBLIC "-//W3C//DTD SVG 1.1//EN"
 "http://www.w3.org/Graphics/SVG/1.1/DTD/svg11.dtd">
<!-- Generated by graphviz version 5.0.0 (20220707.1540)
 -->
<!-- Title: dependencies Pages: 1 -->
<svg width="1143pt" height="247pt"
 viewBox="0.00 0.00 1143.00 246.80" xmlns="http://www.w3.org/2000/svg" xmlns:xlink="http://www.w3.org/1999/xlink">
<g id="graph0" class="graph" transform="scale(1 1) rotate(0) translate(4 242.8)">
<title>dependencies</title>
<polygon fill="white" stroke="transparent" points="-4,4 -4,-242.8 1139,-242.8 1139,4 -4,4"/>
<text text-anchor="middle" x="567.5" y="-8.2" font-family="sans-serif" font-size="14.00">dependencies</text>
<g id="clust1" class="cluster">
<title>cluster_RecipesModule</title>
<polygon fill="none" stroke="black" stroke-dasharray="1,5" points="8,-32.8 8,-230.8 1127,-230.8 1127,-32.8 8,-32.8"/>
</g>
<g id="clust2" class="cluster">
<title>cluster_RecipesModule_declarations</title>
<polygon fill="none" stroke="black" points="188,-40.8 188,-92.8 1119,-92.8 1119,-40.8 188,-40.8"/>
</g>
<g id="clust9" class="cluster">
<title>cluster_RecipesModule_imports</title>
<polygon fill="none" stroke="black" points="16,-40.8 16,-92.8 180,-92.8 180,-40.8 16,-40.8"/>
</g>
<g id="clust10" class="cluster">
<title>cluster_RecipesModule_exports</title>
<polygon fill="none" stroke="black" points="111,-170.8 111,-222.8 963,-222.8 963,-170.8 111,-170.8"/>
</g>
<!-- FavRecipesComponent -->
<g id="node1" class="node">
<title>FavRecipesComponent</title>
<polygon fill="#ffffb3" stroke="black" points="1111.15,-84.8 964.85,-84.8 964.85,-48.8 1111.15,-48.8 1111.15,-84.8"/>
<text text-anchor="middle" x="1038" y="-62.6" font-family="Times,serif" font-size="14.00">FavRecipesComponent</text>
</g>
<!-- RecipesModule -->
<g id="node7" class="node">
<title>RecipesModule</title>
<polygon fill="#8dd3c7" stroke="black" points="582.87,-149.8 579.87,-153.8 558.87,-153.8 555.87,-149.8 479.13,-149.8 479.13,-113.8 582.87,-113.8 582.87,-149.8"/>
<text text-anchor="middle" x="531" y="-127.6" font-family="Times,serif" font-size="14.00">RecipesModule</text>
</g>
<!-- FavRecipesComponent&#45;&gt;RecipesModule -->
<g id="edge1" class="edge">
<title>FavRecipesComponent&#45;&gt;RecipesModule</title>
<path fill="none" stroke="black" d="M1038,-84.91C1038,-104.14 1038,-131.8 1038,-131.8 1038,-131.8 592.88,-131.8 592.88,-131.8"/>
<polygon fill="black" stroke="black" points="592.88,-128.3 582.88,-131.8 592.88,-135.3 592.88,-128.3"/>
</g>
<!-- RecipeDetailsComponent -->
<g id="node2" class="node">
<title>RecipeDetailsComponent</title>
<polygon fill="#ffffb3" stroke="black" points="946.86,-84.8 787.14,-84.8 787.14,-48.8 946.86,-48.8 946.86,-84.8"/>
<text text-anchor="middle" x="867" y="-62.6" font-family="Times,serif" font-size="14.00">RecipeDetailsComponent</text>
</g>
<!-- RecipeDetailsComponent&#45;&gt;RecipesModule -->
<g id="edge2" class="edge">
<title>RecipeDetailsComponent&#45;&gt;RecipesModule</title>
<path fill="none" stroke="black" d="M796,-84.82C796,-102.17 796,-125.8 796,-125.8 796,-125.8 593.04,-125.8 593.04,-125.8"/>
<polygon fill="black" stroke="black" points="593.04,-122.3 583.04,-125.8 593.04,-129.3 593.04,-122.3"/>
</g>
<!-- RecipeItemComponent -->
<g id="node3" class="node">
<title>RecipeItemComponent</title>
<polygon fill="#ffffb3" stroke="black" points="768.86,-84.8 623.14,-84.8 623.14,-48.8 768.86,-48.8 768.86,-84.8"/>
<text text-anchor="middle" x="696" y="-62.6" font-family="Times,serif" font-size="14.00">RecipeItemComponent</text>
</g>
<!-- RecipeItemComponent&#45;&gt;RecipesModule -->
<g id="edge3" class="edge">
<title>RecipeItemComponent&#45;&gt;RecipesModule</title>
<path fill="none" stroke="black" d="M720.39,-85.04C720.39,-100.37 720.39,-119.8 720.39,-119.8 720.39,-119.8 593,-119.8 593,-119.8"/>
<polygon fill="black" stroke="black" points="593,-116.3 583,-119.8 593,-123.3 593,-116.3"/>
</g>
<!-- RecipesListComponent -->
<g id="node4" class="node">
<title>RecipesListComponent</title>
<polygon fill="#ffffb3" stroke="black" points="604.93,-84.8 457.07,-84.8 457.07,-48.8 604.93,-48.8 604.93,-84.8"/>
<text text-anchor="middle" x="531" y="-62.6" font-family="Times,serif" font-size="14.00">RecipesListComponent</text>
</g>
<!-- RecipesListComponent&#45;&gt;RecipesModule -->
<g id="edge4" class="edge">
<title>RecipesListComponent&#45;&gt;RecipesModule</title>
<path fill="none" stroke="black" d="M531,-84.91C531,-84.91 531,-103.79 531,-103.79"/>
<polygon fill="black" stroke="black" points="527.5,-103.79 531,-113.79 534.5,-103.79 527.5,-103.79"/>
</g>
<!-- SearchPipe -->
<g id="node5" class="node">
<title>SearchPipe</title>
<polygon fill="#ffffb3" stroke="black" points="439.48,-84.8 360.52,-84.8 360.52,-48.8 439.48,-48.8 439.48,-84.8"/>
<text text-anchor="middle" x="400" y="-62.6" font-family="Times,serif" font-size="14.00">SearchPipe</text>
</g>
<!-- SearchPipe&#45;&gt;RecipesModule -->
<g id="edge5" class="edge">
<title>SearchPipe&#45;&gt;RecipesModule</title>
<path fill="none" stroke="black" d="M412.48,-85.04C412.48,-100.37 412.48,-119.8 412.48,-119.8 412.48,-119.8 469.02,-119.8 469.02,-119.8"/>
<polygon fill="black" stroke="black" points="469.02,-123.3 479.02,-119.8 469.02,-116.3 469.02,-123.3"/>
</g>
<!-- TopRankedComponent -->
<g id="node6" class="node">
<title>TopRankedComponent</title>
<polygon fill="#ffffb3" stroke="black" points="342.15,-84.8 195.85,-84.8 195.85,-48.8 342.15,-48.8 342.15,-84.8"/>
<text text-anchor="middle" x="269" y="-62.6" font-family="Times,serif" font-size="14.00">TopRankedComponent</text>
</g>
<!-- TopRankedComponent&#45;&gt;RecipesModule -->
<g id="edge6" class="edge">
<title>TopRankedComponent&#45;&gt;RecipesModule</title>
<path fill="none" stroke="black" d="M314.93,-84.82C314.93,-102.17 314.93,-125.8 314.93,-125.8 314.93,-125.8 468.97,-125.8 468.97,-125.8"/>
<polygon fill="black" stroke="black" points="468.97,-129.3 478.97,-125.8 468.97,-122.3 468.97,-129.3"/>
</g>
<!-- FavRecipesComponent  -->
<g id="node9" class="node">
<title>FavRecipesComponent </title>
<polygon fill="#fb8072" stroke="black" points="955.15,-214.8 804.85,-214.8 804.85,-178.8 955.15,-178.8 955.15,-214.8"/>
<text text-anchor="middle" x="880" y="-192.6" font-family="Times,serif" font-size="14.00">FavRecipesComponent </text>
</g>
<!-- RecipesModule&#45;&gt;FavRecipesComponent  -->
<g id="edge8" class="edge">
<title>RecipesModule&#45;&gt;FavRecipesComponent </title>
<path fill="none" stroke="black" stroke-dasharray="5,2" d="M583.01,-137.8C679.37,-137.8 875.93,-137.8 875.93,-137.8 875.93,-137.8 875.93,-168.78 875.93,-168.78"/>
<polygon fill="black" stroke="black" points="872.43,-168.78 875.93,-178.78 879.43,-168.78 872.43,-168.78"/>
</g>
<!-- RecipeDetailsComponent  -->
<g id="node10" class="node">
<title>RecipeDetailsComponent </title>
<polygon fill="#fb8072" stroke="black" points="786.86,-214.8 623.14,-214.8 623.14,-178.8 786.86,-178.8 786.86,-214.8"/>
<text text-anchor="middle" x="705" y="-192.6" font-family="Times,serif" font-size="14.00">RecipeDetailsComponent </text>
</g>
<!-- RecipesModule&#45;&gt;RecipeDetailsComponent  -->
<g id="edge9" class="edge">
<title>RecipesModule&#45;&gt;RecipeDetailsComponent </title>
<path fill="none" stroke="black" stroke-dasharray="5,2" d="M583.05,-143.8C623.17,-143.8 671.86,-143.8 671.86,-143.8 671.86,-143.8 671.86,-168.56 671.86,-168.56"/>
<polygon fill="black" stroke="black" points="668.36,-168.56 671.86,-178.56 675.36,-168.56 668.36,-168.56"/>
</g>
<!-- RecipeItemComponent  -->
<g id="node11" class="node">
<title>RecipeItemComponent </title>
<polygon fill="#fb8072" stroke="black" points="605.86,-214.8 456.14,-214.8 456.14,-178.8 605.86,-178.8 605.86,-214.8"/>
<text text-anchor="middle" x="531" y="-192.6" font-family="Times,serif" font-size="14.00">RecipeItemComponent </text>
</g>
<!-- RecipesModule&#45;&gt;RecipeItemComponent  -->
<g id="edge10" class="edge">
<title>RecipesModule&#45;&gt;RecipeItemComponent </title>
<path fill="none" stroke="black" stroke-dasharray="5,2" d="M531,-149.91C531,-149.91 531,-168.79 531,-168.79"/>
<polygon fill="black" stroke="black" points="527.5,-168.79 531,-178.79 534.5,-168.79 527.5,-168.79"/>
</g>
<!-- RecipesListComponent  -->
<g id="node12" class="node">
<title>RecipesListComponent </title>
<polygon fill="#fb8072" stroke="black" points="438.43,-214.8 287.57,-214.8 287.57,-178.8 438.43,-178.8 438.43,-214.8"/>
<text text-anchor="middle" x="363" y="-192.6" font-family="Times,serif" font-size="14.00">RecipesListComponent </text>
</g>
<!-- RecipesModule&#45;&gt;RecipesListComponent  -->
<g id="edge11" class="edge">
<title>RecipesModule&#45;&gt;RecipesListComponent </title>
<path fill="none" stroke="black" stroke-dasharray="5,2" d="M478.83,-143.8C437.44,-143.8 386.49,-143.8 386.49,-143.8 386.49,-143.8 386.49,-168.56 386.49,-168.56"/>
<polygon fill="black" stroke="black" points="382.99,-168.56 386.49,-178.56 389.99,-168.56 382.99,-168.56"/>
</g>
<!-- TopRankedComponent  -->
<g id="node13" class="node">
<title>TopRankedComponent </title>
<polygon fill="#fb8072" stroke="black" points="269.15,-214.8 118.85,-214.8 118.85,-178.8 269.15,-178.8 269.15,-214.8"/>
<text text-anchor="middle" x="194" y="-192.6" font-family="Times,serif" font-size="14.00">TopRankedComponent </text>
</g>
<!-- RecipesModule&#45;&gt;TopRankedComponent  -->
<g id="edge12" class="edge">
<title>RecipesModule&#45;&gt;TopRankedComponent </title>
<path fill="none" stroke="black" stroke-dasharray="5,2" d="M478.98,-137.8C393.43,-137.8 232.38,-137.8 232.38,-137.8 232.38,-137.8 232.38,-168.78 232.38,-168.78"/>
<polygon fill="black" stroke="black" points="228.88,-168.78 232.38,-178.78 235.88,-168.78 228.88,-168.78"/>
</g>
<!-- RecipesRoutingModule -->
<g id="node8" class="node">
<title>RecipesRoutingModule</title>
<polygon fill="#8dd3c7" stroke="black" points="172.49,-84.8 169.49,-88.8 148.49,-88.8 145.49,-84.8 23.51,-84.8 23.51,-48.8 172.49,-48.8 172.49,-84.8"/>
<text text-anchor="middle" x="98" y="-62.6" font-family="Times,serif" font-size="14.00">RecipesRoutingModule</text>
</g>
<!-- RecipesRoutingModule&#45;&gt;RecipesModule -->
<g id="edge7" class="edge">
<title>RecipesRoutingModule&#45;&gt;RecipesModule</title>
<path fill="none" stroke="black" d="M145.71,-84.91C145.71,-104.14 145.71,-131.8 145.71,-131.8 145.71,-131.8 469.04,-131.8 469.04,-131.8"/>
<polygon fill="black" stroke="black" points="469.04,-135.3 479.04,-131.8 469.04,-128.3 469.04,-135.3"/>
</g>
</g>
</svg>
