<?xml version="1.0" encoding="UTF-8" standalone="no"?>
<!DOCTYPE svg PUBLIC "-//W3C//DTD SVG 1.1//EN"
 "http://www.w3.org/Graphics/SVG/1.1/DTD/svg11.dtd">
<!-- Generated by graphviz version 5.0.0 (20220707.1540)
 -->
<!-- Title: dependencies Pages: 1 -->
<svg width="1150pt" height="247pt"
 viewBox="0.00 0.00 1150.00 246.80" xmlns="http://www.w3.org/2000/svg" xmlns:xlink="http://www.w3.org/1999/xlink">
<g id="graph0" class="graph" transform="scale(1 1) rotate(0) translate(4 242.8)">
<title>dependencies</title>
<polygon fill="white" stroke="transparent" points="-4,4 -4,-242.8 1146,-242.8 1146,4 -4,4"/>
<text text-anchor="middle" x="571" y="-8.2" font-family="sans-serif" font-size="14.00">dependencies</text>
<g id="clust1" class="cluster">
<title>cluster_AppModule</title>
<polygon fill="none" stroke="black" stroke-dasharray="1,5" points="8,-32.8 8,-230.8 1134,-230.8 1134,-32.8 8,-32.8"/>
</g>
<g id="clust4" class="cluster">
<title>cluster_AppModule_imports</title>
<polygon fill="none" stroke="black" points="534,-40.8 534,-92.8 1126,-92.8 1126,-40.8 534,-40.8"/>
</g>
<g id="clust2" class="cluster">
<title>cluster_AppModule_declarations</title>
<polygon fill="none" stroke="black" points="404,-40.8 404,-92.8 526,-92.8 526,-40.8 404,-40.8"/>
</g>
<g id="clust6" class="cluster">
<title>cluster_AppModule_bootstrap</title>
<polygon fill="none" stroke="black" points="588,-170.8 588,-222.8 712,-222.8 712,-170.8 588,-170.8"/>
</g>
<g id="clust7" class="cluster">
<title>cluster_AppModule_providers</title>
<polygon fill="none" stroke="black" points="16,-40.8 16,-92.8 396,-92.8 396,-40.8 16,-40.8"/>
</g>
<!-- AppComponent -->
<g id="node1" class="node">
<title>AppComponent</title>
<polygon fill="#ffffb3" stroke="black" points="517.94,-84.8 412.06,-84.8 412.06,-48.8 517.94,-48.8 517.94,-84.8"/>
<text text-anchor="middle" x="465" y="-62.6" font-family="Times,serif" font-size="14.00">AppComponent</text>
</g>
<!-- AppModule -->
<g id="node2" class="node">
<title>AppModule</title>
<polygon fill="#8dd3c7" stroke="black" points="691.66,-149.8 688.66,-153.8 667.66,-153.8 664.66,-149.8 608.34,-149.8 608.34,-113.8 691.66,-113.8 691.66,-149.8"/>
<text text-anchor="middle" x="650" y="-127.6" font-family="Times,serif" font-size="14.00">AppModule</text>
</g>
<!-- AppComponent&#45;&gt;AppModule -->
<g id="edge1" class="edge">
<title>AppComponent&#45;&gt;AppModule</title>
<path fill="none" stroke="black" d="M465,-84.83C465,-101.2 465,-122.8 465,-122.8 465,-122.8 598.02,-122.8 598.02,-122.8"/>
<polygon fill="black" stroke="black" points="598.02,-126.3 608.02,-122.8 598.02,-119.3 598.02,-126.3"/>
</g>
<!-- AppComponent  -->
<g id="node8" class="node">
<title>AppComponent </title>
<polygon fill="#80b1d3" stroke="black" points="704.44,-214.8 595.56,-214.8 595.56,-178.8 704.44,-178.8 704.44,-214.8"/>
<text text-anchor="middle" x="650" y="-192.6" font-family="Times,serif" font-size="14.00">AppComponent </text>
</g>
<!-- AppModule&#45;&gt;AppComponent  -->
<g id="edge7" class="edge">
<title>AppModule&#45;&gt;AppComponent </title>
<path fill="none" stroke="black" stroke-dasharray="1,5" d="M650,-149.91C650,-149.91 650,-168.79 650,-168.79"/>
<polygon fill="black" stroke="black" points="646.5,-168.79 650,-178.79 653.5,-168.79 646.5,-168.79"/>
</g>
<!-- AppRoutingModule -->
<g id="node3" class="node">
<title>AppRoutingModule</title>
<polygon fill="#8dd3c7" stroke="black" points="1118.28,-84.8 1115.28,-88.8 1094.28,-88.8 1091.28,-84.8 989.72,-84.8 989.72,-48.8 1118.28,-48.8 1118.28,-84.8"/>
<text text-anchor="middle" x="1054" y="-62.6" font-family="Times,serif" font-size="14.00">AppRoutingModule</text>
</g>
<!-- AppRoutingModule&#45;&gt;AppModule -->
<g id="edge2" class="edge">
<title>AppRoutingModule&#45;&gt;AppModule</title>
<path fill="none" stroke="black" d="M1054,-85.09C1054,-107.01 1054,-140.8 1054,-140.8 1054,-140.8 701.71,-140.8 701.71,-140.8"/>
<polygon fill="black" stroke="black" points="701.71,-137.3 691.71,-140.8 701.71,-144.3 701.71,-137.3"/>
</g>
<!-- AuthModule -->
<g id="node4" class="node">
<title>AuthModule</title>
<polygon fill="#8dd3c7" stroke="black" points="971.55,-84.8 968.55,-88.8 947.55,-88.8 944.55,-84.8 884.45,-84.8 884.45,-48.8 971.55,-48.8 971.55,-84.8"/>
<text text-anchor="middle" x="928" y="-62.6" font-family="Times,serif" font-size="14.00">AuthModule</text>
</g>
<!-- AuthModule&#45;&gt;AppModule -->
<g id="edge3" class="edge">
<title>AuthModule&#45;&gt;AppModule</title>
<path fill="none" stroke="black" d="M928,-84.91C928,-104.14 928,-131.8 928,-131.8 928,-131.8 701.92,-131.8 701.92,-131.8"/>
<polygon fill="black" stroke="black" points="701.92,-128.3 691.92,-131.8 701.92,-135.3 701.92,-128.3"/>
</g>
<!-- CoreModule -->
<g id="node5" class="node">
<title>CoreModule</title>
<polygon fill="#8dd3c7" stroke="black" points="866.27,-84.8 863.27,-88.8 842.27,-88.8 839.27,-84.8 779.73,-84.8 779.73,-48.8 866.27,-48.8 866.27,-84.8"/>
<text text-anchor="middle" x="823" y="-62.6" font-family="Times,serif" font-size="14.00">CoreModule</text>
</g>
<!-- CoreModule&#45;&gt;AppModule -->
<g id="edge4" class="edge">
<title>CoreModule&#45;&gt;AppModule</title>
<path fill="none" stroke="black" d="M823,-84.83C823,-101.2 823,-122.8 823,-122.8 823,-122.8 701.88,-122.8 701.88,-122.8"/>
<polygon fill="black" stroke="black" points="701.88,-119.3 691.88,-122.8 701.88,-126.3 701.88,-119.3"/>
</g>
<!-- RecipesModule -->
<g id="node6" class="node">
<title>RecipesModule</title>
<polygon fill="#8dd3c7" stroke="black" points="761.87,-84.8 758.87,-88.8 737.87,-88.8 734.87,-84.8 658.13,-84.8 658.13,-48.8 761.87,-48.8 761.87,-84.8"/>
<text text-anchor="middle" x="710" y="-62.6" font-family="Times,serif" font-size="14.00">RecipesModule</text>
</g>
<!-- RecipesModule&#45;&gt;AppModule -->
<g id="edge5" class="edge">
<title>RecipesModule&#45;&gt;AppModule</title>
<path fill="none" stroke="black" d="M674.95,-84.91C674.95,-84.91 674.95,-103.79 674.95,-103.79"/>
<polygon fill="black" stroke="black" points="671.45,-103.79 674.95,-113.79 678.45,-103.79 671.45,-103.79"/>
</g>
<!-- SharedModule -->
<g id="node7" class="node">
<title>SharedModule</title>
<polygon fill="#8dd3c7" stroke="black" points="640.43,-84.8 637.43,-88.8 616.43,-88.8 613.43,-84.8 541.57,-84.8 541.57,-48.8 640.43,-48.8 640.43,-84.8"/>
<text text-anchor="middle" x="591" y="-62.6" font-family="Times,serif" font-size="14.00">SharedModule</text>
</g>
<!-- SharedModule&#45;&gt;AppModule -->
<g id="edge6" class="edge">
<title>SharedModule&#45;&gt;AppModule</title>
<path fill="none" stroke="black" d="M624.19,-84.91C624.19,-84.91 624.19,-103.79 624.19,-103.79"/>
<polygon fill="black" stroke="black" points="620.69,-103.79 624.19,-113.79 627.69,-103.79 620.69,-103.79"/>
</g>
<!-- SearchService -->
<g id="node9" class="node">
<title>SearchService</title>
<ellipse fill="#fdb462" stroke="black" cx="322" cy="-66.8" rx="66.03" ry="18"/>
<text text-anchor="middle" x="322" y="-62.6" font-family="Times,serif" font-size="14.00">SearchService</text>
</g>
<!-- SearchService&#45;&gt;AppModule -->
<g id="edge8" class="edge">
<title>SearchService&#45;&gt;AppModule</title>
<path fill="none" stroke="black" d="M322,-84.91C322,-104.14 322,-131.8 322,-131.8 322,-131.8 598.13,-131.8 598.13,-131.8"/>
<polygon fill="black" stroke="black" points="598.13,-135.3 608.13,-131.8 598.13,-128.3 598.13,-135.3"/>
</g>
<!-- TokenInterceptorService -->
<g id="node10" class="node">
<title>TokenInterceptorService</title>
<ellipse fill="#fdb462" stroke="black" cx="131" cy="-66.8" rx="107.04" ry="18"/>
<text text-anchor="middle" x="131" y="-62.6" font-family="Times,serif" font-size="14.00">TokenInterceptorService</text>
</g>
<!-- TokenInterceptorService&#45;&gt;AppModule -->
<g id="edge9" class="edge">
<title>TokenInterceptorService&#45;&gt;AppModule</title>
<path fill="none" stroke="black" d="M131,-85.09C131,-107.01 131,-140.8 131,-140.8 131,-140.8 597.97,-140.8 597.97,-140.8"/>
<polygon fill="black" stroke="black" points="597.97,-144.3 607.97,-140.8 597.97,-137.3 597.97,-144.3"/>
</g>
</g>
</svg>
